<?xml version="1.0" encoding="utf-8"?>
<!-- Generator: Adobe Illustrator 20.1.0, SVG Export Plug-In . SVG Version: 6.00 Build 0)  -->
<svg version="1.1" id="Layer_1" xmlns="http://www.w3.org/2000/svg" xmlns:xlink="http://www.w3.org/1999/xlink" x="0px" y="0px"
	 viewBox="0 0 65 65" style="enable-background:new 0 0 65 65;" xml:space="preserve">
<style type="text/css">
	.st0{fill:#121420;}
	.st1{fill:#FFFFFF;}
</style>
<rect y="0" class="st0" width="65" height="65"/>
<g>
	<polygon class="st1" points="45.4,31.2 42,31.2 42,27.8 42,27.6 41.8,27.6 40.9,27.6 40.5,27.6 40.5,27.8 40.5,31.2 37.3,31.2 
		36.9,31.2 36.9,31.4 36.9,32.3 36.9,32.7 37.3,32.7 40.5,32.7 40.5,35.9 40.5,36.4 40.9,36.4 41.8,36.4 42,36.4 42,35.9 42,32.7 
		45.4,32.7 45.7,32.7 45.7,32.3 45.7,31.4 45.7,31.2 	"/>
	<path class="st1" d="M33.8,34.4c-0.8-0.6-1.9-1.6-1.9-2.2c0-0.7,0.2-1.1,1.4-2c1.4-1.1,2.2-2.5,2.2-4c0-1.8-0.7-3.3-1.9-4.1h1.7
		l0,0l2.1-1.5h-8c-3.6,0-6.7,2.6-6.7,5.6c0,3.2,2.5,5.6,5.9,5.6c0.2,0,0.3,0,0.4,0c-0.2,0.4-0.3,0.8-0.3,1.2c0,0.7,0.3,1.3,0.8,1.9
		c-0.1,0-0.2,0-0.3,0c-0.2,0-0.4,0-0.7,0c-4.1,0-7.5,2.5-7.5,5.5s3.9,4.6,7.8,4.6c4.9,0,7.5-2.8,7.5-5.6
		C36.5,37.1,35.8,35.8,33.8,34.4z M31.6,29.8c-0.5,0.6-1.1,0.8-1.8,0.8h-0.1c-1.9-0.1-3.6-2.1-4-4.6c-0.2-1.4,0.1-2.6,0.8-3.4
		c0.5-0.6,1.1-0.8,1.8-0.8h0.1c1.9,0.1,3.6,2.1,4,4.5C32.6,27.7,32.3,29,31.6,29.8z M34.2,39.7c0,2.4-1.8,3.7-5.3,3.7
		c-2.7,0-4.8-1.7-4.8-3.9c0-2,2.4-3.7,5.2-3.7h0.1c0.6,0,1.2,0.1,1.8,0.3c0.2,0.1,0.4,0.3,0.6,0.4c1.3,0.9,2.1,1.4,2.4,2.5
		C34.2,39.2,34.2,39.5,34.2,39.7z"/>
</g>
</svg>
