<?xml version="1.0" encoding="utf-8"?>
<!-- Generator: Adobe Illustrator 20.1.0, SVG Export Plug-In . SVG Version: 6.00 Build 0)  -->
<svg version="1.1" id="Layer_1" xmlns="http://www.w3.org/2000/svg" xmlns:xlink="http://www.w3.org/1999/xlink" x="0px" y="0px"
	 viewBox="0 0 65 65" style="enable-background:new 0 0 65 65;" xml:space="preserve">
<style type="text/css">
	.st0{fill:#121420;}
	.st1{fill:#FFFFFF;}
</style>
<rect y="0" class="st0" width="65" height="65"/>
<path class="st1" d="M30.3,43.4V32.6h-2.9v-3.9h2.9c0,0,0-1.6,0-3.3c0-2.6,1.7-5,5.6-5c1.6,0,2.7,0.2,2.7,0.2l-0.1,3.6
	c0,0-1.2,0-2.5,0c-1.4,0-1.6,0.6-1.6,1.7c0,0.8,0-1.8,0,2.8h4.2l-0.2,3.9h-4v10.8C34.4,43.4,30.3,43.4,30.3,43.4z"/>
</svg>
