<?xml version="1.0" encoding="utf-8"?>
<!-- Generator: Adobe Illustrator 20.1.0, SVG Export Plug-In . SVG Version: 6.00 Build 0)  -->
<svg version="1.1" id="Layer_1" xmlns="http://www.w3.org/2000/svg" xmlns:xlink="http://www.w3.org/1999/xlink" x="0px" y="0px"
	 viewBox="0 0 65 65" style="enable-background:new 0 0 65 65;" xml:space="preserve">
<style type="text/css">
	.st0{fill:#121420;}
	.st1{fill:#FFFFFF;}
</style>
<rect y="0" class="st0" width="65" height="65"/>
<g>
	<path class="st1" d="M44.6,25.7c-0.9,0.4-2,0.7-2.9,0.8c1.1-0.6,1.9-1.7,2.3-2.8c-1,0.6-2.1,1.1-3.3,1.2c-1-1-2.3-1.6-3.8-1.6
		c-2.8,0-5.1,2.3-5.1,5.1c0,0.4,0.1,0.8,0.2,1.2c-4.3-0.2-8.1-2.3-10.6-5.4c-0.4,0.8-0.7,1.7-0.7,2.6c0,1.8,0.9,3.4,2.3,4.3
		c-0.9,0-1.7-0.3-2.3-0.6c0,0,0,0,0,0.1c0,2.5,1.8,4.6,4.2,5.1c-0.4,0.1-0.9,0.2-1.3,0.2c-0.4,0-0.6,0-1-0.1c0.6,2,2.6,3.5,4.8,3.5
		c-1.8,1.4-4,2.2-6.4,2.2c-0.4,0-0.8,0-1.2-0.1c2.3,1.5,5,2.3,7.9,2.3c9.5,0,14.7-7.9,14.7-14.7c0-0.3,0-0.4,0-0.7
		C43,27.7,43.8,26.8,44.6,25.7"/>
</g>
</svg>
